# xmcd CD database file
#
# Track frame offsets:
#	150
#	27410
#	57182
#
# Disc length: 1049 seconds
#
# Revision: 0
# Processed by: cddbd v1.5PL3 Copyright (c) Steve Scherf et al.
# Submitted via: CDex 1.51
#
DISCID=1f041703
DTITLE=Various Artist - SUPER EUROBEAT VOL.66 NON-STOP MEGA MIX BOUNS CD SINGLE
DYEAR=1996
DGENRE=Eurodance
TTITLE0=TOO YOUNG TO FALL IN LOVE (Y and CO. REMIX) - EDO
TTITLE1=JUNGLE NIGHT (B4 ZA BEAT REMIX) - A BEAT POWER
TTITLE2=BOOM BOOM DJ (T.Y.M.P - TEAM REMIX) - MIRKA
EXTD=YEAR: 1996
EXTT0=
EXTT1=
EXTT2=
PLAYORDER=
